<?xml version="1.0" encoding="UTF-8" standalone="no"?>
<svg
   xmlns:svg="http://www.w3.org/2000/svg"
   xmlns="http://www.w3.org/2000/svg"
   id="svg5055"
   version="1.1"
   viewBox="0 0 162.6406 64.639984"
   height="244.30859"
   width="614.70465">
  <defs
     id="defs5049" />
  <g
     transform="translate(-26.780883,-95.346673)"
     id="layer1">
    <path
       d="m 182.39526,134.89162 h 5.52454 l -11.08404,11.58273 11.26282,12.18895 h -5.80951 l -10.3004,-12.08142 z m -10.51277,23.77168 h -4.34974 v -23.77168 h 4.34974 z m -31.57286,-4.7754 4.91833,-18.99584 h 5.13205 l 4.88337,18.99584 4.77585,-18.99584 H 164.58 l -6.80688,23.77168 h -5.2033 l -4.81078,-18.35466 -4.91833,18.35466 h -5.20329 l -6.7007,-23.77168 h 4.63336 z m -30.96637,1.21207 h 10.51411 c 1.85361,0 2.85099,-0.17878 3.52711,-0.60622 0.89118,-0.56993 1.35627,-1.46112 1.35627,-2.67222 0,-1.46246 -0.67747,-2.60231 -1.85362,-3.06605 -0.64251,-0.21373 -1.5337,-0.31992 -3.13729,-0.31992 h -3.06472 c -2.88593,0 -4.73954,-0.42744 -5.98694,-1.35492 -1.46111,-1.13986 -2.31735,-2.99347 -2.31735,-5.09576 0,-2.85233 1.42617,-5.27587 3.74218,-6.30954 1.21244,-0.56993 2.74479,-0.78365 5.4533,-0.78365 h 10.69154 v 3.56474 h -10.1579 c -1.81598,0 -2.77975,0.14248 -3.52711,0.46374 -0.89119,0.42745 -1.46111,1.45977 -1.46111,2.70851 0,2.17352 1.31863,3.02842 4.77584,3.02842 h 2.52973 c 3.77712,0 5.63074,0.42744 6.98566,1.63988 1.28234,1.17616 2.06734,3.2072 2.06734,5.45197 0,2.7085 -1.21245,4.95461 -3.27978,6.02323 -1.24739,0.67747 -2.67222,0.89119 -6.09314,0.89119 h -10.76412 z"
       style="fill:#696a6c;fill-opacity:1;fill-rule:nonzero;stroke:none;stroke-width:1.344172"
       id="path340" />
    <path
       d="m 142.5997,99.331884 c -5.83236,-1.763554 -9.27075,-0.547077 -12.42821,0.135763 9.32586,3.958583 20.81988,15.988923 27.41304,30.464313 l 13.64065,-0.0134 c -7.08916,-15.47818 -17.67586,-26.6953 -28.62548,-30.586676 m -24.94058,6.035666 c -2.71792,2.20444 -4.38335,3.85778 -6.92652,6.76925 3.70722,3.41958 9.34871,9.94688 13.56135,17.79549 l 13.64065,-0.0148 c -4.85918,-10.60954 -13.40811,-19.01061 -20.27548,-24.54994 m 9.34185,-5.06928 c -2.91685,0.96646 -5.18044,2.18696 -7.58381,3.78922 7.45612,5.48556 16.329,14.49824 21.52153,25.84439 l 13.642,-0.0134 c -6.67112,-14.56276 -17.37342,-25.39813 -27.57972,-29.62017 M 44.926114,158.65644 C 51.63353,123.23079 75.293648,97.73185 95.801682,96.669954 l -14.714654,0.0014 C 60.585717,97.747979 34.811221,123.2402 28.1038,158.65644 Z M 118.57705,96.670934 C 98.075739,97.747616 78.626914,123.23984 71.919493,158.65608 H 88.717614 C 95.426376,123.23043 112.78367,97.731487 133.29439,96.66959 Z M 66.821467,158.65644 C 73.531573,123.23079 94.03826,97.73185 114.54629,96.669954 l -14.714649,0.0014 C 79.330332,97.747979 56.732111,123.2402 50.02335,158.65644 Z"
       style="fill:#de0000;fill-opacity:1;fill-rule:nonzero;stroke:none;stroke-width:1.344172"
       id="path364" />
  </g>
</svg>
